<?xml version="1.0" standalone="no"?>
<!DOCTYPE svg PUBLIC "-//W3C//DTD SVG 20010904//EN"
 "http://www.w3.org/TR/2001/REC-SVG-20010904/DTD/svg10.dtd">
<svg version="1.0" xmlns="http://www.w3.org/2000/svg"
 width="50.000000pt" height="50.000000pt" viewBox="0 0 50.000000 50.000000"
 preserveAspectRatio="xMidYMid meet">

<g transform="translate(0.000000,50.000000) scale(0.100000,-0.100000)"
fill="#000000" stroke="none">
<path d="M283 407 c-37 -38 -53 -62 -53 -80 0 -38 14 -33 47 15 39 57 75 82
107 74 36 -9 45 -49 19 -84 -11 -15 -39 -40 -61 -55 -48 -33 -53 -47 -15 -47
18 0 42 16 80 53 64 65 70 101 24 148 -47 46 -83 40 -148 -24z"/>
<path d="M235 260 c-55 -55 -67 -72 -57 -82 10 -10 27 2 82 57 39 38 69 74 67
79 -8 23 -27 12 -92 -54z"/>
<path d="M93 217 c-64 -65 -70 -101 -24 -148 47 -46 83 -40 148 24 37 38 53
62 53 80 0 38 -14 33 -47 -15 -15 -22 -40 -50 -55 -61 -35 -26 -75 -17 -84 19
-8 32 17 68 74 107 48 33 53 47 15 47 -18 0 -42 -16 -80 -53z"/>
</g>
</svg>
